<svg width="47" height="47" viewBox="0 0 47 47" fill="none" xmlns="http://www.w3.org/2000/svg">
<g id="mastercard 1" clip-path="url(#clip0_27_26)">
<path id="Vector" d="M47 23.5C47 31.2588 40.7333 37.6 32.9 37.6C25.1413 37.6 18.8 31.2588 18.8 23.5C18.8 15.7413 25.0667 9.40002 32.8254 9.40002C40.7333 9.40002 47 15.7413 47 23.5Z" fill="#FFB600"/>
<path id="Vector_2" d="M32.9 9.40002C40.6587 9.40002 47 15.7413 47 23.5C47 31.2588 40.7333 37.6 32.9 37.6C25.1413 37.6 18.8 31.2588 18.8 23.5" fill="#F7981D"/>
<path id="Vector_3" d="M32.9 9.40002C40.6587 9.40002 47 15.7413 47 23.5C47 31.2588 40.7333 37.6 32.9 37.6" fill="#FF8500"/>
<path id="Vector_4" d="M13.9508 9.40002C6.26667 9.47463 0 15.7413 0 23.5C0 31.2588 6.26667 37.6 14.1 37.6C17.7556 37.6 21.0381 36.1826 23.5746 33.9445C24.0968 33.4969 24.5444 32.9746 24.9921 32.4524H22.0825C21.7095 32.0048 21.3365 31.4826 21.0381 31.0349H26.0365C26.3349 30.5873 26.6333 30.0651 26.8571 29.5429H20.2175C19.9937 29.0953 19.7698 28.573 19.6206 28.0508H27.3794C27.827 26.6334 28.1254 25.1413 28.1254 23.5746C28.1254 22.5302 27.9762 21.5603 27.827 20.5905H19.173C19.2476 20.0683 19.3968 19.6207 19.546 19.0984H27.3048C27.1556 18.5762 26.9317 18.054 26.7079 17.6064H20.1429C20.3667 17.0842 20.6651 16.6365 20.9635 16.1143H25.9619C25.6635 15.5921 25.2905 15.0699 24.8429 14.6222H22.0825C22.5302 14.1 22.9778 13.6524 23.5 13.2048C21.0381 10.8921 17.681 9.54923 14.0254 9.54923C14.0254 9.40002 14.0254 9.40002 13.9508 9.40002Z" fill="#FF5050"/>
<path id="Vector_5" d="M0 23.5C0 31.2588 6.26667 37.6001 14.1 37.6001C17.7556 37.6001 21.0381 36.1826 23.5746 33.9445C24.0968 33.4969 24.5444 32.9747 24.9921 32.4524H22.0825C21.7095 32.0048 21.3365 31.4826 21.0381 31.035H26.0365C26.3349 30.5874 26.6333 30.0651 26.8571 29.5429H20.2175C19.9937 29.0953 19.7698 28.5731 19.6206 28.0508H27.3794C27.827 26.6334 28.1254 25.1413 28.1254 23.5747C28.1254 22.5302 27.9762 21.5604 27.827 20.5905H19.173C19.2476 20.0683 19.3968 19.6207 19.546 19.0985H27.3048C27.1556 18.5762 26.9317 18.054 26.7079 17.6064H20.1429C20.3667 17.0842 20.6651 16.6366 20.9635 16.1143H25.9619C25.6635 15.5921 25.2905 15.0699 24.8429 14.6223H22.0825C22.5302 14.1 22.9778 13.6524 23.5 13.2048C21.0381 10.8921 17.681 9.54926 14.0254 9.54926H13.9508" fill="#E52836"/>
<path id="Vector_6" d="M14.1 37.6001C17.7556 37.6001 21.0381 36.1826 23.5746 33.9445C24.0968 33.4969 24.5444 32.9747 24.9921 32.4524H22.0825C21.7095 32.0048 21.3365 31.4826 21.0381 31.035H26.0365C26.3349 30.5874 26.6333 30.0651 26.8571 29.5429H20.2175C19.9936 29.0953 19.7698 28.5731 19.6206 28.0508H27.3794C27.827 26.6334 28.1254 25.1413 28.1254 23.5747C28.1254 22.5302 27.9762 21.5604 27.827 20.5905H19.173C19.2476 20.0683 19.3968 19.6207 19.546 19.0985H27.3048C27.1555 18.5762 26.9317 18.054 26.7079 17.6064H20.1429C20.3667 17.0842 20.6651 16.6366 20.9635 16.1143H25.9619C25.6635 15.5921 25.2905 15.0699 24.8429 14.6223H22.0825C22.5302 14.1 22.9778 13.6524 23.5 13.2048C21.0381 10.8921 17.6809 9.54926 14.0254 9.54926H13.9508" fill="#CB2026"/>
<g id="Group">
<path id="Vector_7" d="M19.0984 27.081L19.3222 25.8128C19.2476 25.8128 19.0984 25.8874 18.9492 25.8874C18.427 25.8874 18.3524 25.5889 18.427 25.4397L18.8746 22.8286H19.6953L19.9191 21.4112H19.173L19.3222 20.5159H17.8302C17.8302 20.5159 16.9349 25.4397 16.9349 26.0366C16.9349 26.9318 17.4572 27.3048 18.1286 27.3048C18.5762 27.3048 18.9492 27.1556 19.0984 27.081Z" fill="white"/>
<path id="Vector_8" d="M19.6206 24.6937C19.6206 26.7826 21.0381 27.3048 22.2317 27.3048C23.3508 27.3048 23.7984 27.081 23.7984 27.081L24.0968 25.6635C24.0968 25.6635 23.2762 26.0365 22.5302 26.0365C20.8889 26.0365 21.1873 24.8429 21.1873 24.8429H24.246C24.246 24.8429 24.4698 23.873 24.4698 23.5C24.4698 22.5302 23.9476 21.3365 22.3064 21.3365C20.7397 21.1873 19.6206 22.8286 19.6206 24.6937ZM22.2317 22.5302C23.0524 22.5302 22.9032 23.5 22.9032 23.5746H21.2619C21.2619 23.5 21.4111 22.5302 22.2317 22.5302Z" fill="white"/>
<path id="Vector_9" d="M31.7064 27.081L32.0048 25.4397C32.0048 25.4397 31.2587 25.8127 30.7365 25.8127C29.6921 25.8127 29.2444 24.9921 29.2444 24.0969C29.2444 22.3064 30.1397 21.3365 31.1841 21.3365C31.9302 21.3365 32.527 21.7842 32.527 21.7842L32.7508 20.2175C32.7508 20.2175 31.8556 19.8445 31.0349 19.8445C29.3191 19.8445 27.6032 21.3365 27.6032 24.1715C27.6032 26.0365 28.4984 27.3048 30.2889 27.3048C30.8857 27.3048 31.7064 27.081 31.7064 27.081Z" fill="white"/>
<path id="Vector_10" d="M10.8921 21.1873C9.84762 21.1873 9.10159 21.4857 9.10159 21.4857L8.87778 22.754C8.87778 22.754 9.54921 22.4556 10.519 22.4556C11.0413 22.4556 11.4889 22.5302 11.4889 22.9778C11.4889 23.2762 11.4143 23.3508 11.4143 23.3508C11.4143 23.3508 10.9667 23.3508 10.7429 23.3508C9.4746 23.3508 8.05714 23.873 8.05714 25.5889C8.05714 26.9318 8.95238 27.2302 9.4746 27.2302C10.519 27.2302 10.9667 26.5587 11.0413 26.5587L10.9667 27.1556H12.3095L12.9063 23.0524C12.9063 21.2619 11.4143 21.1873 10.8921 21.1873ZM11.1905 24.5445C11.1905 24.7683 11.0413 25.9619 10.146 25.9619C9.69841 25.9619 9.54921 25.5889 9.54921 25.3651C9.54921 24.9921 9.77302 24.4699 10.8921 24.4699C11.1159 24.5445 11.1905 24.5445 11.1905 24.5445Z" fill="white"/>
<path id="Vector_11" d="M14.3238 27.2301C14.6968 27.2301 16.5619 27.3047 16.5619 25.2904C16.5619 23.4254 14.7714 23.7984 14.7714 23.0524C14.7714 22.6793 15.0698 22.5301 15.5921 22.5301C15.8159 22.5301 16.6365 22.6047 16.6365 22.6047L16.8603 21.2619C16.8603 21.2619 16.3381 21.1127 15.4429 21.1127C14.3238 21.1127 13.2048 21.5603 13.2048 23.0524C13.2048 24.7682 15.0698 24.619 15.0698 25.2904C15.0698 25.7381 14.5476 25.8127 14.1746 25.8127C13.5032 25.8127 12.8318 25.5889 12.8318 25.5889L12.6079 26.9317C12.6825 27.0809 13.0556 27.2301 14.3238 27.2301Z" fill="white"/>
<path id="Vector_12" d="M44.0905 19.9937L43.7921 22.0079C43.7921 22.0079 43.1952 21.2619 42.3746 21.2619C41.0318 21.2619 39.8381 22.9032 39.8381 24.8429C39.8381 26.0365 40.4349 27.3048 41.7032 27.3048C42.5984 27.3048 43.1206 26.7079 43.1206 26.7079L43.046 27.2302H44.5381L45.6572 20.0683L44.0905 19.9937ZM43.4191 23.9476C43.4191 24.7683 43.046 25.8127 42.2254 25.8127C41.7032 25.8127 41.4048 25.3651 41.4048 24.619C41.4048 23.4254 41.927 22.6794 42.5984 22.6794C43.1206 22.6794 43.4191 23.0524 43.4191 23.9476Z" fill="white"/>
<path id="Vector_13" d="M2.76033 27.1556L3.65556 21.7841L3.80477 27.1556H4.84921L6.7889 21.7841L5.96826 27.1556H7.53493L8.72858 19.9937H6.26667L4.77461 24.3952L4.70001 19.9937H2.53652L1.34286 27.1556H2.76033Z" fill="white"/>
<path id="Vector_14" d="M25.8873 27.1556C26.3349 24.6937 26.4095 22.6794 27.454 23.0524C27.6032 22.0826 27.827 21.7096 27.9762 21.3365C27.9762 21.3365 27.9016 21.3365 27.6778 21.3365C27.0063 21.3365 26.4841 22.2318 26.4841 22.2318L26.6333 21.4112H25.2159L24.246 27.2302H25.8873V27.1556Z" fill="white"/>
<path id="Vector_15" d="M35.1381 21.1873C34.0937 21.1873 33.3476 21.4857 33.3476 21.4857L33.1238 22.754C33.1238 22.754 33.7953 22.4556 34.7651 22.4556C35.2873 22.4556 35.7349 22.5302 35.7349 22.9778C35.7349 23.2762 35.6603 23.3508 35.6603 23.3508C35.6603 23.3508 35.2127 23.3508 34.9889 23.3508C33.7207 23.3508 32.3032 23.873 32.3032 25.5889C32.3032 26.9318 33.1984 27.2302 33.7207 27.2302C34.7651 27.2302 35.2127 26.5587 35.2873 26.5587L35.2127 27.1556H36.5556L37.1524 23.0524C37.227 21.2619 35.6603 21.1873 35.1381 21.1873ZM35.5111 24.5445C35.5111 24.7683 35.3619 25.9619 34.4667 25.9619C34.0191 25.9619 33.8699 25.5889 33.8699 25.3651C33.8699 24.9921 34.0937 24.4699 35.2127 24.4699C35.4365 24.5445 35.4365 24.5445 35.5111 24.5445Z" fill="white"/>
<path id="Vector_16" d="M38.4206 27.1556C38.8683 24.6937 38.9429 22.6794 39.9873 23.0524C40.1365 22.0826 40.3603 21.7096 40.5095 21.3365C40.5095 21.3365 40.4349 21.3365 40.2111 21.3365C39.5397 21.3365 39.0175 22.2318 39.0175 22.2318L39.1667 21.4112H37.7492L36.7794 27.2302H38.4206V27.1556Z" fill="white"/>
</g>
<g id="Group_2">
<path id="Vector_17" d="M16.7857 26.0366C16.7857 26.9318 17.308 27.3048 17.9794 27.3048C18.5016 27.3048 18.9492 27.1556 19.0984 27.081L19.3222 25.8128C19.2476 25.8128 19.0984 25.8874 18.9492 25.8874C18.427 25.8874 18.3524 25.5889 18.427 25.4397L18.8746 22.8286H19.6953L19.9191 21.4112H19.173L19.3222 20.5159" fill="#DCE5E5"/>
<path id="Vector_18" d="M20.3667 24.6937C20.3667 26.7826 21.0381 27.3048 22.2317 27.3048C23.3508 27.3048 23.7984 27.081 23.7984 27.081L24.0968 25.6635C24.0968 25.6635 23.2762 26.0365 22.5302 26.0365C20.8889 26.0365 21.1873 24.8429 21.1873 24.8429H24.246C24.246 24.8429 24.4698 23.873 24.4698 23.5C24.4698 22.5302 23.9476 21.3365 22.3064 21.3365C20.7397 21.1873 20.3667 22.8286 20.3667 24.6937ZM22.2317 22.5302C23.0524 22.5302 23.2016 23.5 23.2016 23.5746H21.2619C21.2619 23.5 21.4111 22.5302 22.2317 22.5302Z" fill="#DCE5E5"/>
<path id="Vector_19" d="M31.7064 27.081L32.0048 25.4397C32.0048 25.4397 31.2587 25.8127 30.7365 25.8127C29.6921 25.8127 29.2445 24.9921 29.2445 24.0969C29.2445 22.3064 30.1397 21.3365 31.1841 21.3365C31.9302 21.3365 32.527 21.7842 32.527 21.7842L32.7508 20.2175C32.7508 20.2175 31.8556 19.8445 31.0349 19.8445C29.3191 19.8445 28.3492 21.3365 28.3492 24.1715C28.3492 26.0365 28.4984 27.3048 30.2889 27.3048C30.8857 27.3048 31.7064 27.081 31.7064 27.081Z" fill="#DCE5E5"/>
<path id="Vector_20" d="M8.87778 22.8286C8.87778 22.8286 9.54921 22.5302 10.519 22.5302C11.0413 22.5302 11.4889 22.6048 11.4889 23.0524C11.4889 23.3508 11.4143 23.4254 11.4143 23.4254C11.4143 23.4254 10.9667 23.4254 10.7429 23.4254C9.4746 23.4254 8.05714 23.9477 8.05714 25.6635C8.05714 27.0064 8.95238 27.3048 9.4746 27.3048C10.519 27.3048 10.9667 26.6334 11.0413 26.6334L10.9667 27.2302H12.3095L12.9063 23.127C12.9063 21.4112 11.4143 21.3365 10.8175 21.3365L8.87778 22.8286ZM11.9365 24.5445C11.9365 24.7683 11.0413 25.9619 10.146 25.9619C9.69841 25.9619 9.54921 25.5889 9.54921 25.3651C9.54921 24.9921 9.77302 24.4699 10.8921 24.4699C11.1159 24.5445 11.9365 24.5445 11.9365 24.5445Z" fill="#DCE5E5"/>
<path id="Vector_21" d="M12.6825 27.0809C12.6825 27.0809 13.1302 27.2301 14.3984 27.2301C14.7714 27.2301 16.6365 27.3047 16.6365 25.2904C16.6365 23.4254 14.846 23.7984 14.846 23.0524C14.846 22.6793 15.1444 22.5301 15.6667 22.5301C15.8905 22.5301 16.7111 22.6047 16.7111 22.6047L16.9349 21.2619C16.9349 21.2619 16.4127 21.1127 15.5175 21.1127C14.3984 21.1127 14.0254 21.5603 14.0254 23.0524C14.0254 24.7682 15.1444 24.619 15.1444 25.2904C15.1444 25.7381 14.6222 25.8127 14.2492 25.8127" fill="#DCE5E5"/>
<path id="Vector_22" d="M43.7921 22.008C43.7921 22.008 43.1953 21.262 42.3746 21.262C41.0318 21.262 40.5841 22.9033 40.5841 24.843C40.5841 26.0366 40.4349 27.3049 41.7032 27.3049C42.5984 27.3049 43.1207 26.708 43.1207 26.708L43.0461 27.2303H44.5381L45.6572 20.0684L43.7921 22.008ZM43.7175 23.9477C43.7175 24.7684 43.0461 25.8128 42.2254 25.8128C41.7032 25.8128 41.4048 25.3652 41.4048 24.6191C41.4048 23.4255 41.927 22.6795 42.5984 22.6795C43.1207 22.6795 43.7175 23.0525 43.7175 23.9477Z" fill="#DCE5E5"/>
<path id="Vector_23" d="M2.76033 27.1556L3.65556 21.7841L3.80477 27.1556H4.84921L6.7889 21.7841L5.96826 27.1556H7.53493L8.72858 19.9937H6.8635L4.77461 24.3952L4.70001 19.9937H3.87937L1.34286 27.1556H2.76033Z" fill="#DCE5E5"/>
<path id="Vector_24" d="M24.3206 27.1556H25.8873C26.3349 24.6937 26.4095 22.6794 27.454 23.0524C27.6032 22.0826 27.827 21.7096 27.9762 21.3365C27.9762 21.3365 27.9016 21.3365 27.6778 21.3365C27.0064 21.3365 26.4841 22.2318 26.4841 22.2318L26.6333 21.4112" fill="#DCE5E5"/>
<path id="Vector_25" d="M33.1238 22.8286C33.1238 22.8286 33.7953 22.5302 34.7651 22.5302C35.2873 22.5302 35.7349 22.6048 35.7349 23.0524C35.7349 23.3508 35.6603 23.4254 35.6603 23.4254C35.6603 23.4254 35.2127 23.4254 34.9889 23.4254C33.7207 23.4254 32.3032 23.9477 32.3032 25.6635C32.3032 27.0064 33.1984 27.3048 33.7207 27.3048C34.7651 27.3048 35.2127 26.6334 35.2873 26.6334L35.2127 27.2302H36.5556L37.1524 23.127C37.1524 21.4112 35.6603 21.3365 35.0635 21.3365L33.1238 22.8286ZM36.1826 24.5445C36.1826 24.7683 35.2873 25.9619 34.3921 25.9619C33.9445 25.9619 33.7953 25.5889 33.7953 25.3651C33.7953 24.9921 34.0191 24.4699 35.1381 24.4699C35.4365 24.5445 36.1826 24.5445 36.1826 24.5445Z" fill="#DCE5E5"/>
<path id="Vector_26" d="M36.854 27.1556H38.4206C38.8683 24.6937 38.9429 22.6794 39.9873 23.0524C40.1365 22.0826 40.3603 21.7096 40.5095 21.3365C40.5095 21.3365 40.4349 21.3365 40.2111 21.3365C39.5397 21.3365 39.0175 22.2318 39.0175 22.2318L39.1667 21.4112" fill="#DCE5E5"/>
</g>
</g>
<defs>
<clipPath id="clip0_27_26">
<rect width="47" height="47" fill="white"/>
</clipPath>
</defs>
</svg>
