<svg width="96" height="96" viewBox="0 0 96 96" fill="none" xmlns="http://www.w3.org/2000/svg">
<g id="paypal 1">
<path id="Vector" d="M74.2095 42.1335H69.0286C68.7238 42.1335 68.419 42.4382 68.2667 42.743L66.1333 56.1526C66.1333 56.4573 66.2857 56.6097 66.5905 56.6097H69.3333C69.6381 56.6097 69.7905 56.4573 69.7905 56.1526L70.4 52.343C70.4 52.0383 70.7048 51.7335 71.1619 51.7335H72.8381C76.3429 51.7335 78.3238 50.0573 78.781 46.7049C79.0857 45.3335 78.781 44.1144 78.1714 43.3525C77.2571 42.5906 75.8857 42.1335 74.2095 42.1335ZM74.819 47.1621C74.5143 48.9906 73.1429 48.9906 71.7714 48.9906H70.8571L71.4667 45.4859C71.4667 45.3335 71.619 45.1811 71.9238 45.1811H72.2286C73.1429 45.1811 74.0571 45.1811 74.5143 45.7906C74.819 45.943 74.819 46.4002 74.819 47.1621Z" fill="#139AD6"/>
<g id="Group">
<path id="Vector_2" d="M36.8762 42.1335H31.6952C31.3904 42.1335 31.0857 42.4382 30.9333 42.743L28.8 56.1526C28.8 56.4573 28.9524 56.6097 29.2571 56.6097H31.6952C32 56.6097 32.3047 56.3049 32.4571 56.0002L33.0666 52.343C33.0666 52.0383 33.3714 51.7335 33.8285 51.7335H35.5047C39.0095 51.7335 40.9904 50.0573 41.4476 46.7049C41.7524 45.3335 41.4476 44.1144 40.8381 43.3525C39.9238 42.5906 38.7047 42.1335 36.8762 42.1335ZM37.4857 47.1621C37.1809 48.9906 35.8095 48.9906 34.4381 48.9906H33.6762L34.2857 45.4859C34.2857 45.3335 34.4381 45.1811 34.7428 45.1811H35.0476C35.9619 45.1811 36.8762 45.1811 37.3333 45.7906C37.4857 45.943 37.6381 46.4002 37.4857 47.1621Z" fill="#263B80"/>
<path id="Vector_3" d="M52.5714 47.0097H50.1333C49.9809 47.0097 49.6761 47.1621 49.6761 47.3145L49.5238 48.0764L49.3714 47.7716C48.7619 47.0097 47.6952 46.705 46.4762 46.705C43.7333 46.705 41.2952 48.8383 40.8381 51.7335C40.5333 53.2574 40.9904 54.6288 41.7523 55.5431C42.5142 56.4574 43.5809 56.7621 44.9523 56.7621C47.2381 56.7621 48.4571 55.3907 48.4571 55.3907L48.3047 56.1526C48.3047 56.4574 48.4571 56.6097 48.7619 56.6097H51.0476C51.3523 56.6097 51.6571 56.305 51.8095 56.0002L53.1809 47.4669C53.0285 47.3145 52.7238 47.0097 52.5714 47.0097ZM49.0666 51.8859C48.7619 53.2573 47.6952 54.324 46.1714 54.324C45.4095 54.324 44.8 54.0193 44.4952 53.7145C44.1904 53.2574 44.0381 52.6478 44.0381 51.8859C44.1904 50.5145 45.4095 49.4478 46.7809 49.4478C47.5428 49.4478 48 49.7526 48.4571 50.0573C48.9142 50.5145 49.0666 51.2764 49.0666 51.8859Z" fill="#263B80"/>
</g>
<path id="Vector_4" d="M89.7524 47.0094H87.3143C87.1619 47.0094 86.8571 47.1618 86.8571 47.3142L86.7048 48.0761L86.5524 47.7713C85.9428 47.0094 84.8762 46.7047 83.6571 46.7047C80.9143 46.7047 78.4762 48.838 78.019 51.7332C77.7143 53.257 78.1714 54.6285 78.9333 55.5428C79.6952 56.4571 80.7619 56.7618 82.1333 56.7618C84.419 56.7618 85.6381 55.3904 85.6381 55.3904L85.4857 56.1523C85.4857 56.457 85.6381 56.6094 85.9429 56.6094H88.2286C88.5333 56.6094 88.8381 56.3047 88.9905 55.9999L90.3619 47.4666C90.2095 47.3142 90.0571 47.0094 89.7524 47.0094ZM86.2476 51.8856C85.9428 53.257 84.8762 54.3237 83.3524 54.3237C82.5905 54.3237 81.9809 54.019 81.6762 53.7142C81.3714 53.257 81.219 52.6475 81.219 51.8856C81.3714 50.5142 82.5905 49.4475 83.9619 49.4475C84.7238 49.4475 85.1809 49.7523 85.6381 50.057C86.2476 50.5142 86.4 51.2761 86.2476 51.8856Z" fill="#139AD6"/>
<path id="Vector_5" d="M65.8286 47.0096H63.2381C62.9333 47.0096 62.781 47.162 62.6286 47.3143L59.2762 52.4953L57.7524 47.6191C57.6 47.3143 57.4476 47.162 56.9905 47.162H54.5524C54.2476 47.162 54.0952 47.4667 54.0952 47.7715L56.8381 55.8477L54.2476 59.5048C54.0952 59.8096 54.2476 60.2667 54.5524 60.2667H56.9905C57.2952 60.2667 57.4476 60.1143 57.6 59.962L65.981 47.9239C66.4381 47.4667 66.1333 47.0096 65.8286 47.0096Z" fill="#263B80"/>
<path id="Vector_6" d="M92.6476 42.5906L90.5143 56.3048C90.5143 56.6096 90.6667 56.762 90.9714 56.762H93.1048C93.4095 56.762 93.7143 56.4572 93.8667 56.1525L96 42.7429C96 42.4382 95.8476 42.2858 95.5429 42.2858H93.1048C92.9524 42.1334 92.8 42.2858 92.6476 42.5906Z" fill="#139AD6"/>
<path id="Vector_7" d="M17.5238 37.5619C16.4571 36.3429 14.4762 35.7333 11.7333 35.7333H4.11429C3.65714 35.7333 3.2 36.1905 3.04762 36.6476L0 56.6095C0 57.0667 0.304762 57.3714 0.609524 57.3714H5.33333L6.55238 49.9048V50.2095C6.70476 49.7524 7.1619 49.2952 7.61905 49.2952H9.90476C14.3238 49.2952 17.6762 47.4667 18.7429 42.4381C18.7429 42.2857 18.7429 42.1333 18.7429 41.981C18.5905 41.981 18.5905 41.981 18.7429 41.981C18.8952 40 18.5905 38.781 17.5238 37.5619Z" fill="#263B80"/>
<path id="Vector_8" d="M18.5905 41.9809C18.5905 42.1333 18.5905 42.2857 18.5905 42.438C17.5238 47.619 14.1714 49.2952 9.75238 49.2952H7.46667C7.00952 49.2952 6.55238 49.7523 6.4 50.2095L4.87619 59.5047C4.87619 59.8095 5.02857 60.1142 5.48571 60.1142H9.44762C9.90476 60.1142 10.3619 59.8095 10.3619 59.3523V59.1999L11.1238 54.4761V54.1714C11.1238 53.7142 11.581 53.4095 12.0381 53.4095H12.6476C16.4571 53.4095 19.5048 51.8857 20.2667 47.3142C20.5714 45.4857 20.419 43.8095 19.5048 42.7428C19.3524 42.438 19.0476 42.1333 18.5905 41.9809Z" fill="#139AD6"/>
<path id="Vector_9" d="M17.5238 41.5239C17.3714 41.5239 17.219 41.3715 17.0667 41.3715C16.9143 41.3715 16.7619 41.3715 16.6095 41.2192C16 41.0668 15.3905 41.0668 14.6286 41.0668H8.6857C8.53332 41.0668 8.38094 41.0668 8.22856 41.2192C7.9238 41.3715 7.77142 41.6763 7.77142 41.9811L6.55237 49.9049V50.2096C6.70475 49.7525 7.16189 49.2954 7.61903 49.2954H9.90475C14.3238 49.2954 17.6762 47.4668 18.7428 42.4382C18.7428 42.2858 18.7428 42.1334 18.8952 41.9811C18.5905 41.8287 18.4381 41.6763 18.1333 41.6763C17.6762 41.5239 17.6762 41.5239 17.5238 41.5239Z" fill="#232C65"/>
</g>
</svg>
