<svg width="59" height="59" viewBox="0 0 59 59" fill="none" xmlns="http://www.w3.org/2000/svg">
<g id="visa 1" clip-path="url(#clip0_26_122)">
<path id="Vector" d="M21.6333 37.9754L24.6302 21.1183H29.3127L26.4095 37.9754H21.6333Z" fill="#3C58BF"/>
<path id="Vector_2" d="M21.6333 37.9754L25.473 21.1183H29.3127L26.4095 37.9754H21.6333Z" fill="#293688"/>
<path id="Vector_3" d="M43.3603 21.3055C42.4238 20.9309 40.9254 20.5563 39.0524 20.5563C34.3698 20.5563 30.9984 22.8975 30.9984 26.269C30.9984 28.7975 33.3397 30.1087 35.2127 30.9515C37.0857 31.7944 37.6476 32.3563 37.6476 33.1055C37.6476 34.2293 36.1492 34.7912 34.8381 34.7912C32.9651 34.7912 31.9349 34.5102 30.3429 33.8547L29.6873 33.5737L29.0317 37.4134C30.1555 37.8817 32.2159 38.3499 34.3698 38.3499C39.3333 38.3499 42.6111 36.0087 42.6111 32.4499C42.6111 30.4833 41.3936 28.9848 38.5841 27.7674C36.8984 26.9245 35.8682 26.4563 35.8682 25.6134C35.8682 24.8642 36.7111 24.115 38.5841 24.115C40.1762 24.115 41.3 24.396 42.1428 24.7706L42.6111 24.9579L43.3603 21.3055Z" fill="#3C58BF"/>
<path id="Vector_4" d="M43.3603 21.3055C42.4238 20.9309 40.9254 20.5563 39.0524 20.5563C34.3698 20.5563 31.8413 22.8975 31.8413 26.269C31.8413 28.7975 33.3397 30.1087 35.2127 30.9515C37.0857 31.7944 37.6476 32.3563 37.6476 33.1055C37.6476 34.2293 36.1492 34.7912 34.8381 34.7912C32.9651 34.7912 31.9349 34.5102 30.3429 33.8547L29.6873 33.5737L29.0317 37.4134C30.1555 37.8817 32.2159 38.3499 34.3698 38.3499C39.3333 38.3499 42.6111 36.0087 42.6111 32.4499C42.6111 30.4833 41.3936 28.9848 38.5841 27.7674C36.8984 26.9245 35.8682 26.4563 35.8682 25.6134C35.8682 24.8642 36.7111 24.115 38.5841 24.115C40.1762 24.115 41.3 24.396 42.1428 24.7706L42.6111 24.9579L43.3603 21.3055Z" fill="#293688"/>
<path id="Vector_5" d="M51.4143 21.1183C50.2905 21.1183 49.4476 21.2119 48.9794 22.3357L41.9556 37.9754H47.0127L47.9492 35.1659H53.9429L54.5048 37.9754H59L55.0667 21.1183H51.4143ZM49.2603 32.3564C49.5413 31.5135 51.1333 27.3929 51.1333 27.3929C51.1333 27.3929 51.5079 26.3627 51.7889 25.7072L52.0699 27.2992C52.0699 27.2992 53.0064 31.5135 53.1937 32.45H49.2603V32.3564Z" fill="#3C58BF"/>
<path id="Vector_6" d="M52.5381 21.1183C51.4143 21.1183 50.5714 21.2119 50.1032 22.3357L41.9556 37.9754H47.0127L47.9492 35.1659H53.9429L54.5048 37.9754H59L55.0667 21.1183H52.5381ZM49.2603 32.3564C49.6349 31.4199 51.1333 27.3929 51.1333 27.3929C51.1333 27.3929 51.5079 26.3627 51.7889 25.7072L52.0699 27.2992C52.0699 27.2992 53.0064 31.5135 53.1937 32.45H49.2603V32.3564Z" fill="#293688"/>
<path id="Vector_7" d="M13.0174 32.9183L12.5492 30.4833C11.7063 27.6738 8.99046 24.5833 5.99364 23.0849L10.2079 38.069H15.2651L22.8508 21.2119H17.7936L13.0174 32.9183Z" fill="#3C58BF"/>
<path id="Vector_8" d="M13.0174 32.9183L12.5492 30.4833C11.7063 27.6738 8.99046 24.5833 5.99364 23.0849L10.2079 38.069H15.2651L22.8508 21.2119H18.7301L13.0174 32.9183Z" fill="#293688"/>
<path id="Vector_9" d="M0 21.1183L0.842857 21.3056C6.83651 22.7103 10.9571 26.2691 12.5492 30.4834L10.8635 22.523C10.5825 21.3992 9.73968 21.1183 8.70952 21.1183H0Z" fill="#FFBC00"/>
<path id="Vector_10" d="M0 21.1183C5.99365 22.523 10.9571 26.1754 12.5492 30.3897L10.9571 23.7405C10.6762 22.6167 9.73968 21.9611 8.70952 21.9611L0 21.1183Z" fill="#F7981D"/>
<path id="Vector_11" d="M0 21.1183C5.99365 22.523 10.9571 26.1754 12.5492 30.3897L11.4254 26.7373C11.1444 25.6135 10.7698 24.4897 9.45873 24.0215L0 21.1183Z" fill="#ED7C00"/>
<g id="Group">
<path id="Vector_12" d="M17.7 32.3564L14.5159 29.1723L13.0175 32.731L12.6429 30.3897C11.8 27.5802 9.08412 24.4897 6.0873 22.9913L10.3016 37.9755H15.3587L17.7 32.3564Z" fill="#051244"/>
<path id="Vector_13" d="M26.4095 37.9754L22.3826 33.8548L21.6333 37.9754H26.4095Z" fill="#051244"/>
<path id="Vector_14" d="M37.1794 32.1692C37.554 32.5438 37.7413 32.8247 37.6476 33.1994C37.6476 34.3232 36.1492 34.8851 34.8381 34.8851C32.9651 34.8851 31.9349 34.6041 30.3429 33.9486L29.6873 33.6676L29.0317 37.5073C30.1555 37.9755 32.2159 38.4438 34.3698 38.4438C37.3667 38.4438 39.8016 37.6009 41.2063 36.1025L37.1794 32.1692Z" fill="#051244"/>
<path id="Vector_15" d="M42.6111 37.9755H47.0127L47.9492 35.166H53.9429L54.5048 37.9755H59L57.4079 31.139L51.7889 25.7073L52.0698 27.2057C52.0698 27.2057 53.0064 31.42 53.1937 32.3565H49.2603C49.6349 31.42 51.1333 27.393 51.1333 27.393C51.1333 27.393 51.5079 26.3628 51.7889 25.7073" fill="#051244"/>
</g>
</g>
<defs>
<clipPath id="clip0_26_122">
<rect width="59" height="59" fill="white"/>
</clipPath>
</defs>
</svg>
